<svg id="Capa_1" enable-background="new 0 0 512 512" height="512" viewBox="0 0 512 512" width="512" xmlns="http://www.w3.org/2000/svg"><g><g><path d="m96.185 353.629c-4.143 0-7.5-3.357-7.5-7.5v-281.365c0-4.142 3.357-7.5 7.5-7.5s7.5 3.358 7.5 7.5v281.365c0 4.143-3.358 7.5-7.5 7.5z" fill="#c3d5ef"/></g><g><path d="m229.976 428.001c-2.648 0-5.216-1.405-6.58-3.891-1.994-3.63-.668-8.189 2.963-10.184l74.098-40.7-91.29-34.751c-2.864-1.091-4.777-3.813-4.831-6.878s1.762-5.853 4.586-7.043l80.735-34.029-69.867-33.327c-2.544-1.214-4.192-3.751-4.268-6.569-.075-2.818 1.436-5.44 3.912-6.788l63.201-34.394-53.634-33.701c-2.021-1.271-3.317-3.427-3.49-5.808s.798-4.702 2.615-6.25l53.398-45.522c3.149-2.688 7.886-2.311 10.572.842 2.688 3.152 2.311 7.886-.842 10.573l-45.627 38.897 55.833 35.083c2.255 1.417 3.59 3.923 3.506 6.585-.083 2.662-1.572 5.08-3.911 6.353l-61.539 33.489 71.675 34.189c2.666 1.271 4.338 3.99 4.27 6.942-.068 2.953-1.863 5.591-4.585 6.738l-78.892 33.252 88.971 33.868c2.732 1.041 4.611 3.574 4.814 6.49.202 2.917-1.31 5.686-3.872 7.093l-88.318 48.511c-1.145.632-2.383.93-3.603.93z" fill="#365e7d"/></g><g><path d="m325.347 432.452c-3.713 0-6.938-2.757-7.428-6.538l-39.546-305.549c-.532-4.108 2.367-7.869 6.475-8.401 4.113-.534 7.868 2.368 8.4 6.476l39.546 305.548c.532 4.108-2.367 7.869-6.475 8.4-.327.044-.651.064-.972.064z" fill="#2b4d66"/></g><g><path d="m199.314 435.249c-.321 0-.646-.021-.973-.063-4.107-.531-7.007-4.292-6.475-8.4l39.908-308.346c.531-4.108 4.29-7.007 8.4-6.475 4.107.532 7.007 4.293 6.475 8.401l-39.908 308.346c-.488 3.779-3.714 6.537-7.427 6.537z" fill="#2b4d66"/></g><path d="m339.753 412.512h-154.483c-2.315 0-4.191 1.876-4.191 4.191v39.928l14.679 20h135.401l12.786-20v-39.928c-.001-2.314-1.877-4.191-4.192-4.191z" fill="#c3d5ef"/><path d="m339.753 412.512h-21.381c2.315 0 4.191 1.876 4.191 4.191v59.928l21.38-20v-39.928c.001-2.314-1.875-4.191-4.19-4.191z" fill="#b7c8ea"/><path d="m113.215 500.75h-88.452l26.846-82.532h34.759z" fill="#df6b57"/><path d="m86.368 418.218h-34.759l-8.634 26.542c13.533 10.752 33.271 9.878 45.786-2.637l4.062-4.062z" fill="#dd544f"/><path d="m372.325 500.75h-219.627v-37.52c0-3.645 2.954-6.599 6.599-6.599h206.429c3.645 0 6.599 2.954 6.599 6.599z" fill="#365e7d"/><path d="m365.726 456.631h-23.062c3.644 0 6.599 2.954 6.599 6.599v37.52h23.062v-37.52c0-3.645-2.954-6.599-6.599-6.599z" fill="#2b4d66"/><path d="m308.644 128.435h-92.265c-5.326 0-9.643-4.317-9.643-9.643v-53.874h111.551v53.874c0 5.326-4.317 9.643-9.643 9.643z" fill="#365e7d"/><path d="m206.736 85.135 111.551 11.979v-32.196h-111.551z" fill="#2b4d66"/><path d="m413.408 91.567-366.412-39.345c-2.899-.311-4.547-3.473-3.143-6.028l4.253-7.737c14.024-25.51 42.922-39.037 71.493-33.465l293.809 57.293z" fill="#c3d5ef"/><path d="m392.279 89.298 21.129 2.269v-29.282l-21.129-4.12z" fill="#b7c8ea"/><path d="m413.408 62.285 54.258-46.289c2.948-2.515 7.521-.875 8.198 2.941 29.061 163.669-.02 262.843-59.384 299.918-1.336.834-3.072-.124-3.072-1.699z" fill="#365e7d"/><path d="m475.865 18.939c-.678-3.816-5.25-5.458-8.198-2.943l-10.991 9.377c24.353 143.263 3.504 236.087-43.267 280.14v11.642c0 1.575 1.735 2.534 3.071 1.7 59.364-37.074 88.445-136.247 59.385-299.916z" fill="#2b4d66"/><g><path d="m442.231 88.435c-2.12 0-4.227-.894-5.71-2.632-2.688-3.151-2.312-7.885.838-10.573l16.191-13.813c3.154-2.689 7.887-2.312 10.574.838 2.688 3.151 2.312 7.885-.838 10.573l-16.191 13.813c-1.412 1.205-3.143 1.794-4.864 1.794z" fill="#c3d5ef"/></g><g><path d="m438.084 244.629c-4.143 0-7.5-3.358-7.5-7.5v-9.229c0-4.142 3.357-7.5 7.5-7.5s7.5 3.358 7.5 7.5v9.229c0 4.142-3.357 7.5-7.5 7.5z" fill="#c3d5ef"/></g><path d="m71.611 54.865 49.148 5.278v15.483c0 5.047-4.091 9.138-9.138 9.138h-30.872c-5.047 0-9.138-4.091-9.138-9.138z" fill="#365e7d"/><path d="m151.345 359.949-62.584 62.584c-13.463 13.463-35.29 13.463-48.753 0-13.463-13.463-13.463-35.29 0-48.753l62.584-62.584c13.463-13.463 35.29-13.463 48.753 0 13.463 13.463 13.463 35.29 0 48.753z" fill="#365e7d"/><path d="m151.345 311.196c-13.463-13.463-35.29-13.463-48.753 0l-4.26 4.26c11.816-2.502 24.619.825 33.796 10.002l3.255 3.255c10.418 10.418 13.306 25.511 8.672 38.526l7.291-7.29c13.462-13.463 13.462-35.29-.001-48.753z" fill="#2b4d66"/><circle cx="65.552" cy="396.989" fill="#df6b57" r="12.535"/><circle cx="124.34" cy="338.201" fill="#df6b57" r="12.535"/><g><path d="m99.627 378.316c-1.92 0-3.839-.732-5.304-2.197l-7.9-7.901c-2.929-2.929-2.929-7.678.001-10.606 2.928-2.929 7.677-2.928 10.606.001l7.9 7.901c2.929 2.929 2.929 7.678-.001 10.606-1.463 1.463-3.383 2.196-5.302 2.196z" fill="#e7ecf6"/></g><g><path d="m279.973 112.828h-34.922c-4.143 0-7.5-3.358-7.5-7.5s3.357-7.5 7.5-7.5h34.922c4.143 0 7.5 3.358 7.5 7.5s-3.358 7.5-7.5 7.5z" fill="#c3d5ef"/></g><g><path d="m504.5 508.25h-497c-4.143 0-7.5-3.357-7.5-7.5s3.357-7.5 7.5-7.5h497c4.143 0 7.5 3.357 7.5 7.5s-3.357 7.5-7.5 7.5z" fill="#95d6a4"/></g></g></svg>